<?xml version="1.0" encoding="utf-8"?>
<!-- Generator: Adobe Illustrator 28.0.0, SVG Export Plug-In . SVG Version: 6.00 Build 0)  -->
<svg version="1.1" id="Calque_1" xmlns="http://www.w3.org/2000/svg" xmlns:xlink="http://www.w3.org/1999/xlink" x="0px" y="0px"
	 viewBox="0 0 27 72" style="enable-background:new 0 0 27 72;" xml:space="preserve">
<style type="text/css">
	.st0{opacity:0;fill:#696969;}
	.st1{fill:#4AF64D;}
</style>
<rect id="XMLID_40_" class="st0" width="27" height="72"/>
<g id="XMLID_33_">
	<path id="XMLID_54_" class="st1" d="M7.28,25.93l14.44,8.33c1.33,0.77,1.33,2.7,0,3.47L7.28,46.07c-1.33,0.77-3-0.19-3-1.73V27.67
		C4.28,26.12,5.95,25.16,7.28,25.93z"/>
	<path id="XMLID_42_" d="M6.28,46.84c-0.43,0-0.86-0.11-1.25-0.34c-0.78-0.45-1.25-1.26-1.25-2.17V27.67c0-0.9,0.47-1.71,1.25-2.17
		c0.78-0.45,1.72-0.45,2.5,0l14.43,8.33c0.78,0.45,1.25,1.26,1.25,2.17s-0.47,1.71-1.25,2.17L7.53,46.5
		C7.14,46.73,6.71,46.84,6.28,46.84z M6.28,26.16c-0.26,0-0.52,0.07-0.75,0.2c-0.47,0.27-0.75,0.76-0.75,1.3v16.67
		c0,0.54,0.28,1.03,0.75,1.3c0.47,0.27,1.03,0.27,1.5,0l14.43-8.33c0.47-0.27,0.75-0.76,0.75-1.3s-0.28-1.03-0.75-1.3L7.03,26.37
		C6.8,26.23,6.54,26.16,6.28,26.16z"/>
</g>
</svg>
